PathFileType	4	(X/Y/Z)	c:/Users/goper/Files/vsCode/490R/osim_files/A03/A03_SSWS_02.trc
DataRate	CameraRate	NumFrames	NumMarkers	Units                	OrigDataRate	OrigDataStartFrame	OrigNumFrames
250.00	250.00	4	36	mm	250.0	1030	2745
                Frame#	Time	LPSIS			LASIS			LTH1			LTH2			LTH3			LTH4			LLFE			LMFE			LSH1			LSH2			LSH3			LSH4			LLMAL			LMMAL			LCAL			LMTP5			LTOE			LMTP1			RPSIS			RASIS			RTH1			RTH2			RTH3			RTH4			RLFE			RMFE			RSH1			RSH2			RSH3			RSH4			RLMAL			RMMAL			RCAL			RMTP1			RTOE			RMTP5		
		X1	Y1	Z1	X2	Y2	Z2	X3	Y3	Z3	X4	Y4	Z4	X5	Y5	Z5	X6	Y6	Z6	X7	Y7	Z7	X8	Y8	Z8	X9	Y9	Z9	X10	Y10	Z10	X11	Y11	Z11	X12	Y12	Z12	X13	Y13	Z13	X14	Y14	Z14	X15	Y15	Z15	X16	Y16	Z16	X17	Y17	Z17	X18	Y18	Z18	X19	Y19	Z19	X20	Y20	Z20	X21	Y21	Z21	X22	Y22	Z22	X23	Y23	Z23	X24	Y24	Z24	X25	Y25	Z25	X26	Y26	Z26	X27	Y27	Z27	X28	Y28	Z28	X29	Y29	Z29	X30	Y30	Z30	X31	Y31	Z31	X32	Y32	Z32	X33	Y33	Z33	X34	Y34	Z34	X35	Y35	Z35	X36	Y36	Z36

1030	4.11600	687.86493	1045.13831	261.00330	473.27301	951.80640	408.96027	632.65228	622.75800	422.75296	637.88416	579.50970	420.04086	573.92883	609.95618	411.25952	588.99664	569.05536	407.48898	665.01245	537.25171	408.87549	640.90588	526.49463	255.17830	729.85803	463.57574	405.12234	740.84888	416.56122	402.37231	669.69556	443.06403	400.24197	692.62634	399.59689	393.44400	829.34644	102.69595	359.94281	819.21234	109.18118	260.60242	899.54407	93.68391	306.17517	684.56458	36.42742	367.78986	654.79706	66.05093	298.90637	685.93231	46.75415	253.60876	679.64343	1041.15308	180.52045	423.89542	962.67548	111.12592	404.73300	600.94800	65.71712	386.89560	561.74091	76.18812	344.90573	620.50507	75.81353	336.18893	578.53156	83.10908	354.90240	539.31219	96.97366	329.49573	552.02545	217.38214	381.87283	456.40656	90.11927	364.83215	418.98068	77.37523	321.42398	476.38858	86.72266	311.49304	430.80838	74.88626	203.80098	140.07487	109.50504	155.45821	154.82544	192.47031	221.26776	73.92904	170.23386	19.34697	158.40410	190.05003	14.83454	190.51872	134.78264	27.21984	136.64381	74.26956
1031	4.12000	682.45715	1044.09851	260.41769	466.19354	949.70569	408.55560	629.12610	622.11182	422.76959	634.64606	578.91736	420.11807	570.53375	609.04926	411.49274	585.69086	568.20972	407.74997	661.84546	536.70074	408.93985	637.72656	525.79315	255.20776	727.11884	463.45782	405.13083	737.98077	416.19766	402.57776	666.93445	442.68884	400.43268	690.27588	399.21631	393.41739	828.95386	103.18568	359.99500	818.75793	109.57899	260.48788	899.08929	94.43562	306.10620	684.50458	36.37514	367.74753	654.67255	65.93503	298.88657	685.78131	46.68649	253.56351	674.03729	1040.06274	179.96361	417.98837	961.60901	111.37785	398.29932	600.39764	65.64636	380.20477	561.19293	76.14577	338.40366	620.12976	76.22025	329.59622	578.17395	83.41411	348.24603	538.57056	97.08081	323.03738	551.27069	217.57790	375.46436	455.45911	90.44080	358.49802	417.88776	77.84165	315.42941	475.42050	86.91309	307.64127	431.32773	74.16403	198.49632	138.23219	111.02410	149.56299	153.45377	193.24768	215.82205	72.99701	172.37106	13.64593	157.25009	188.95906	9.62453	188.81459	133.72975	22.64128	134.55711	73.79082
1032	4.12400	677.02057	1043.03149	259.92685	461.37488	948.50269	408.72058	625.55939	621.51019	422.84879	631.43488	578.44495	420.31635	566.94800	608.11987	411.76303	582.29858	567.33740	408.02982	659.30420	536.60504	409.22018	634.36536	525.08215	255.22913	724.60022	463.55356	405.20532	735.02332	415.86148	402.83780	664.05914	442.25101	400.67957	687.87994	398.91870	393.48740	828.54828	103.73523	360.05447	818.27014	110.04177	260.41049	898.65210	95.32899	306.09808	684.43311	36.32400	367.70767	654.46173	65.73704	298.87021	685.61078	46.56376	253.49651	668.57849	1039.10571	179.51538	412.04715	960.52081	111.65663	391.49954	599.86121	65.65987	373.37167	560.67731	76.19264	331.44098	619.77643	76.54885	322.75040	577.80023	83.71777	341.50516	538.00452	97.12866	316.40201	550.58313	217.81068	368.97714	454.69702	90.78766	352.20230	417.02853	78.22613	308.38510	474.21912	87.17257	301.42236	430.32986	74.41510	194.48244	136.83575	112.13760	144.29875	151.89285	193.97585	211.51591	73.33633	174.31898	8.74424	155.14037	188.47275	4.83555	186.28990	132.74709	18.53620	131.65852	73.48914
1033	4.12800	671.59418	1041.98853	259.48874	456.08893	946.53259	408.56470	621.81482	620.85828	422.89664	627.60913	577.65833	420.35074	563.20203	607.21594	412.04929	578.78680	566.47479	408.33765	655.83569	536.00494	409.31204	630.86859	524.34351	255.31772	721.25262	463.24158	405.14401	733.37494	416.52182	402.22937	661.12463	441.73947	400.77533	685.30750	398.51093	393.49057	828.09106	104.31968	360.15732	817.69556	110.31431	260.44131	898.18463	96.27637	306.08710	684.42371	36.29561	367.69574	654.31250	65.57231	298.82550	685.44025	46.49206	253.42116	662.89618	1038.00781	179.07640	406.19141	959.54260	111.89599	384.57861	599.42023	65.67927	366.67535	560.19910	76.44999	324.34888	619.25073	76.56778	315.84787	577.43280	84.01532	334.58432	537.42896	97.17671	309.72952	549.99268	217.91115	362.42755	453.99716	91.12585	345.90607	416.23553	78.58602	302.25394	473.33102	87.43232	295.00244	429.21225	74.82192	190.69501	135.41315	113.22027	139.47894	150.35719	194.98776	207.95728	73.62386	175.49306	4.66669	151.88649	188.26985	0.93253	183.15808	132.87971	15.55024	127.50750	73.40533
